<svg xmlns="http://www.w3.org/2000/svg" xmlns:xlink="http://www.w3.org/1999/xlink" width="257.32" height="64" viewBox="0 0 257.32 64">
  <defs>
    <clipPath id="clip-logo">
      <rect width="257.32" height="64"/>
    </clipPath>
  </defs>
  <g id="logo" clip-path="url(#clip-logo)">
    <g id="Group_12013" data-name="Group 12013" transform="translate(0 -0.099)">
      <g id="Group_11659" data-name="Group 11659">
        <path id="Path_16767" data-name="Path 16767" d="M729.259,157.664a1.433,1.433,0,1,0,1.434-1.433,1.434,1.434,0,0,0-1.434,1.433" transform="translate(-701.279 -156.231)" fill="#ffa800"/>
        <path id="Path_16768" data-name="Path 16768" d="M723.654,172.456l-.408-.408,1.769-1.769-1.926-1.926,1.989-1.989.408.408-1.581,1.581,1.925,1.926Z" transform="translate(-696.255 -164.483)" fill="#ffa800" stroke="#ffa800" stroke-miterlimit="10" stroke-width="0.705"/>
        <path id="Path_16769" data-name="Path 16769" d="M618.93,354.443a5.114,5.114,0,0,0-7.878-4.3l-.008-.009-.186.14q-.1.07-.193.144a20.166,20.166,0,0,1-23.884-.036l-.079-.06c-.083-.062-.167-.125-.25-.188l-.009.011a5.115,5.115,0,1,0-3.947,9.279q-.061.7-.062,1.425a16.314,16.314,0,0,0,32.628,0c0-.481-.022-.956-.063-1.427A5.116,5.116,0,0,0,618.93,354.443Z" transform="translate(-578.564 -313.475)" fill="#ffa800"/>
        <path id="Path_16770" data-name="Path 16770" d="M622.554,186.368a16.3,16.3,0,1,0,.578.28Z" transform="translate(-595.542 -179.556)" fill="#ffa800"/>
        <rect id="Rectangle_425" data-name="Rectangle 425" width="26.015" height="10.776" rx="5.388" transform="translate(7.193 14.975)" fill="#fff"/>
        <path id="Path_16771" data-name="Path 16771" d="M687.357,265.9" transform="translate(-667.157 -245.538)" fill="none" stroke="#e8364c" stroke-miterlimit="10" stroke-width="0.705"/>
        <g id="Group_11658" data-name="Group 11658" transform="translate(13.498 19.039)">
          <g id="Group_11657" data-name="Group 11657" transform="translate(0 0)">
            <path id="Path_16772" data-name="Path 16772" d="M655.552,260.916h-1a1.14,1.14,0,1,0-2.281,0h-1a2.145,2.145,0,1,1,4.29,0Z" transform="translate(-651.262 -258.771)" fill="#ffa800"/>
            <path id="Path_16773" data-name="Path 16773" d="M704.636,260.916h-1a1.14,1.14,0,1,0-2.281,0h-1a2.145,2.145,0,1,1,4.29,0Z" transform="translate(-691.232 -258.771)" fill="#ffa800"/>
          </g>
        </g>
        <path id="Path_16774" data-name="Path 16774" d="M687.357,265.9" transform="translate(-667.157 -245.538)" fill="#e8364c"/>
        <path id="Path_16775" data-name="Path 16775" d="M635.229,359.289a20.207,20.207,0,0,1-11.867-3.84,15,15,0,0,0,23.734,0,20.208,20.208,0,0,1-11.867,3.84" transform="translate(-615.044 -318.459)" fill="#ec4217"/>
        <ellipse id="Ellipse_123" data-name="Ellipse 123" cx="3.14" cy="1.047" rx="3.14" ry="1.047" transform="matrix(0.865, -0.502, 0.502, 0.865, 9.975, 11.06)" fill="#fff" opacity="0.5"/>
      </g>
      <g id="Group_11660" data-name="Group 11660" transform="translate(60.666 18)">
        <path id="Path_16776" data-name="Path 16776" d="M551.712,548.1a.542.542,0,0,0,.055-.567.451.451,0,0,0-.179-.165.522.522,0,0,0-.211-.073,2.053,2.053,0,0,0-.293-.017h-.654v1.789h.425v-.658h.172l.523.658h.536l-.647-.769A.746.746,0,0,0,551.712,548.1Zm-.383-.16a.185.185,0,0,1-.075.083.228.228,0,0,1-.121.052.859.859,0,0,1-.176.019h-.1v-.505h.13a1.115,1.115,0,0,1,.152.007.3.3,0,0,1,.111.034.2.2,0,0,1,.082.076.288.288,0,0,1,.022.1A.4.4,0,0,1,551.329,547.937Zm1.057-.993a1.792,1.792,0,1,0,.526,1.271A1.722,1.722,0,0,0,552.385,546.944Zm-.278,2.261a1.363,1.363,0,0,1-.991.419,1.349,1.349,0,0,1-.989-.419,1.408,1.408,0,0,1,0-1.988,1.341,1.341,0,0,1,.989-.415,1.354,1.354,0,0,1,.991.415,1.413,1.413,0,0,1,0,1.988Zm-16.343,10.718-4.19-11.916h-7.512l7.289,18.008h8.573l7.342-18.008H539.9Zm-61.814-8.742-.052-.017a7.7,7.7,0,0,0,1.169-.578,6.3,6.3,0,0,0-3.44-11.52l.394,0-15.307-.009v26.96h12.561c.237,0,.47-.006.7-.01h3.007l.393-.009c4.093-.145,6.775-3.5,6.775-7.63C480.155,554.776,477.287,552,473.951,551.182Zm-9.913-7.157h3.605a4.747,4.747,0,0,1,1.219.187,2.84,2.84,0,0,1,1.649,1.837,2.666,2.666,0,0,1,.076.629,3.837,3.837,0,0,1-.237,1.374,2.8,2.8,0,0,1-.8,1.012,3.066,3.066,0,0,1-.39.219,3.857,3.857,0,0,1-1.438.381c-.468.024-.689.036-1.846.036h-1.835Zm6.894,16.316a4.275,4.275,0,0,1-2.3.688h-4.592v-6.692h3.885c.279,0,.511.007.646.007a5.345,5.345,0,0,1,1.695.262c.106.038.213.08.322.124a3.261,3.261,0,0,1,.346,5.611Zm24.682-12.286-6.33,8.09v-17.1h-7.118v26.967h7.116l3.062-3.89,2.845,3.89h8.11l-6.84-9.188,6.86-8.773Zm26.1.7c-1.45-1.058-4.978-1.586-8.152-1.586a25.256,25.256,0,0,0-3.843.336,21.956,21.956,0,0,0-4.494,1.182l2.038,4.125a10.814,10.814,0,0,1,4.391-1.5,10.3,10.3,0,0,1,2.841-.044,3.459,3.459,0,0,1,1.628.6,2.214,2.214,0,0,1,.87,1.952v.136a32.521,32.521,0,0,0-7.985.907c-2.413.708-4.93,2.853-4.93,5.692a5.956,5.956,0,0,0,5.982,5.783c.087,0,.876.013.876.013a12.581,12.581,0,0,0,6.024-1.91l1.19,1.6h5.741V553.5A5.406,5.406,0,0,0,521.712,548.759ZM516.958,561.1a5.231,5.231,0,0,1-3.357,1.568,2.257,2.257,0,0,1-.319-.02c-.052,0-.1-.014-.145-.017-.028,0-.063-.012-.09-.016a2.41,2.41,0,0,1-.012-4.727c.02-.007.039-.01.062-.019.978-.218,3.86-.488,3.86-.488Z" transform="translate(-456.715 -538.735)" fill="#ec4217"/>
        <path id="Path_16777" data-name="Path 16777" d="M852.463,560.267c-1.45-1.058-3.272-1.586-6.445-1.586a19.748,19.748,0,0,0-3.843.336,22.433,22.433,0,0,0-4.21,1.467L840,563.471a12.056,12.056,0,0,1,4.107-1.5c2.292-.28,3.8.071,4.47.555.733.52.87,1.911.87,2.806v.136a32.506,32.506,0,0,0-7.985.907,5.881,5.881,0,0,0,1.928,11.488,12.581,12.581,0,0,0,6.024-1.911l1.19,1.6h4.034v-12.54A5.405,5.405,0,0,0,852.463,560.267Zm-3.047,12.345a6.256,6.256,0,0,1-3.357,1.568c-.236.02-2.913.243-3.066-2.419-.119-2.072,2.109-2.54,2.563-2.664.978-.218,3.86-.488,3.86-.488Z" transform="translate(-683.683 -550.443)" fill="#4a4a4a"/>
        <path id="Path_16778" data-name="Path 16778" d="M779.344,564.957v13.177h-5.178v-9.087c0-.885-.053-1.922-.065-2.544a2.777,2.777,0,0,0-.413-1.463,2.9,2.9,0,0,0-2.763-1.216,5.852,5.852,0,0,0-3.178,1.132v13.177h-5.235v-18.19h4.1l1.138,2.009a16.948,16.948,0,0,1,2.535-1.862,5.953,5.953,0,0,1,3.326-.6,6.953,6.953,0,0,1,5.041,3.112,15.992,15.992,0,0,1,2.927-2.317,8.46,8.46,0,0,1,3.8-.842A6.286,6.286,0,0,1,789,561.208a6.673,6.673,0,0,1,1.74,5.086v11.841h-5.206v-9.087c0-.9-.019-1.937-.057-2.552s-.094-2.69-2.958-2.677A5.048,5.048,0,0,0,779.344,564.957Z" transform="translate(-639.075 -550.892)" fill="#4a4a4a"/>
        <path id="Path_16779" data-name="Path 16779" d="M926.4,556v-3.553h-3.167v-4.631l-5.2,1.707v15.949q0,3.337,1.661,4.714a5.436,5.436,0,0,0,4.208,1.376,20.358,20.358,0,0,0,2.575-.137,16.515,16.515,0,0,0,1.992-.379v-3.034a12.476,12.476,0,0,1-2.491.551,2.615,2.615,0,0,1-2.73-2.9c0-.476-.016-1.033-.016-1.671V556Z" transform="translate(-731.82 -543.965)" fill="#4a4a4a"/>
        <path id="Path_16780" data-name="Path 16780" d="M726.379,553.322a8.635,8.635,0,0,0-3.937-2.874c-1.164-.443-4.13-1.354-5.041-1.646a6.923,6.923,0,0,1-2.818-1.275,3.6,3.6,0,0,1-1.155-2.493,3.475,3.475,0,0,1,.645-2.192,3.623,3.623,0,0,1,2.848-1.515,15.888,15.888,0,0,1,5.859.853,29.1,29.1,0,0,1,3.32,1.415v-3.882a27.019,27.019,0,0,0-7.81-1.435,11.639,11.639,0,0,0-7.815,2.276,7.284,7.284,0,0,0-2.809,6.073A7.449,7.449,0,0,0,709,550.652a7.568,7.568,0,0,0,4.217,3.066c.885.323,5.505,1.552,6.376,1.9a3.675,3.675,0,0,1,2.526,4.394,3.819,3.819,0,0,1-1.819,2.473,7.74,7.74,0,0,1-3.586.437,19.738,19.738,0,0,1-9.336-3.015l-.024-.009v3.991a25.084,25.084,0,0,0,4.171,1.48,20.785,20.785,0,0,0,5.224.583c3.455,0,6.335-.784,8.349-2.429a7.838,7.838,0,0,0,2.661-6.2A7.266,7.266,0,0,0,726.379,553.322Z" transform="translate(-606.182 -538.273)" fill="#4a4a4a"/>
        <path id="Path_16781" data-name="Path 16781" d="M894.989,563.243h2.306l-.007-4.682a5.907,5.907,0,0,0-3.385.417,6.6,6.6,0,0,0-2.309,2.256l-1.148-1.86h-4.029v18.19h5.24V564.245a5.074,5.074,0,0,1,3.333-.993Z" transform="translate(-712.963 -550.321)" fill="#4a4a4a"/>
      </g>
    </g>
  </g>
</svg>
